<svg xmlns="http://www.w3.org/2000/svg" viewBox="0 0 327.3 320"><defs><style>.cls-1{isolation:isolate;}.cls-2{fill:#fff;mix-blend-mode:overlay;}</style></defs><g class="cls-1"><g id="Layer_2" data-name="Layer 2"><g id="Header"><path class="cls-2" d="M324.82,151.49A38.79,38.79,0,0,1,320,133.26V5a5,5,0,0,0-5-5H5A5,5,0,0,0,0,5V132.39a40.21,40.21,0,0,0,3.92,17.67c.24.48.48,1,.73,1.43a21,21,0,0,1,2.48,9.92,21,21,0,0,1-2.48,9.91l-.07.14a40.54,40.54,0,0,0-4.58,19V315a5,5,0,0,0,5,5H315a5,5,0,0,0,5-5V189.55a38.79,38.79,0,0,1,4.82-18.23,21.06,21.06,0,0,0,0-19.83Z"/></g></g></g></svg>