<svg xmlns="http://www.w3.org/2000/svg" viewBox="0 0 224.66 17.74"><defs><style>.cls-1{fill:#fff;}</style></defs><g id="Layer_2" data-name="Layer 2"><g id="Header"><path class="cls-1" d="M23,12.14a2.75,2.75,0,0,0,1.29,1.5,4.36,4.36,0,0,0,2.22.56,3.67,3.67,0,0,0,2.13-.57,1.75,1.75,0,0,0,.84-1.49,1.57,1.57,0,0,0-.77-1.33A6.94,6.94,0,0,0,26.3,10,9.06,9.06,0,0,1,22,8.09a4.25,4.25,0,0,1-1.48-3.31,4.55,4.55,0,0,1,.43-2,4.16,4.16,0,0,1,1.24-1.5,5.86,5.86,0,0,1,2-.94A9.18,9.18,0,0,1,26.67,0,7.72,7.72,0,0,1,30.62,1a4.87,4.87,0,0,1,2.21,2.6L30.06,4.8A2.16,2.16,0,0,0,29,3.7a4.37,4.37,0,0,0-2-.4,4.5,4.5,0,0,0-2.1.43,1.28,1.28,0,0,0-.8,1.12q0,1.28,3.39,2a9.87,9.87,0,0,1,4.44,2,4.22,4.22,0,0,1,1.48,3.34,4.89,4.89,0,0,1-.51,2.22,5.21,5.21,0,0,1-1.38,1.75,6.66,6.66,0,0,1-2.1,1.16,8.4,8.4,0,0,1-2.67.41,7.48,7.48,0,0,1-4.19-1.13,6,6,0,0,1-2.46-3.11Z"/><path class="cls-1" d="M37.59.28H50.5V3.77h-9V6.59h7.93v3.49H41.51v7.41H37.59Z"/><path class="cls-1" d="M63.14.28l6.77,17.19H65.72l-1.45-3.68h-5.8L57,17.47H52.83L59.6.28ZM61.37,6.4l-1.6,4.07H63Z"/><path class="cls-1" d="M192.18.55,199,17.74h-4.2l-1.45-3.69h-5.79l-1.45,3.69h-4.2L188.64.55Zm-1.77,6.11-1.59,4.08H192Z"/><path class="cls-1" d="M72.52,17.47V.26h3.92V14h9.9v3.49Z"/><path class="cls-1" d="M101,3.77H95.62v13.7H91.69V3.77H86.34V.28H101Z"/><path class="cls-1" d="M102.76,8.9a8.66,8.66,0,0,1,.7-3.43,9.39,9.39,0,0,1,1.89-2.81,9.07,9.07,0,0,1,2.8-1.9,8.48,8.48,0,0,1,3.45-.7,8.71,8.71,0,0,1,6.22,2.58,8.84,8.84,0,0,1,1.88,2.8,8.56,8.56,0,0,1,.69,3.44,8.55,8.55,0,0,1-.69,3.43,8.84,8.84,0,0,1-1.88,2.8A8.85,8.85,0,0,1,108.15,17a8.84,8.84,0,0,1-2.8-1.88,9,9,0,0,1-1.89-2.8A8.57,8.57,0,0,1,102.76,8.9Zm13.7,0a5.47,5.47,0,0,0-.38-2,5.36,5.36,0,0,0-1-1.66,5,5,0,0,0-1.56-1.13,4.63,4.63,0,0,0-3.81,0,5.29,5.29,0,0,0-1.56,1.13,5.36,5.36,0,0,0-1,1.66,5.47,5.47,0,0,0-.38,2,5.29,5.29,0,0,0,.39,2,5.53,5.53,0,0,0,1.06,1.67,5,5,0,0,0,1.56,1.13,4.39,4.39,0,0,0,1.9.41,4.34,4.34,0,0,0,1.89-.41A5.12,5.12,0,0,0,115,12.56a5.36,5.36,0,0,0,1-1.66A5.42,5.42,0,0,0,116.46,8.88Z"/><path class="cls-1" d="M151.9,12.17a2.75,2.75,0,0,0,1.29,1.5,4.26,4.26,0,0,0,2.22.56,3.67,3.67,0,0,0,2.13-.57,1.75,1.75,0,0,0,.84-1.49,1.54,1.54,0,0,0-.77-1.32,6.72,6.72,0,0,0-2.4-.84,9.06,9.06,0,0,1-4.34-1.89,4.25,4.25,0,0,1-1.48-3.31,4.55,4.55,0,0,1,.43-2,4.16,4.16,0,0,1,1.24-1.5A6.1,6.1,0,0,1,153,.4a9.31,9.31,0,0,1,2.57-.33,7.75,7.75,0,0,1,3.95.91,4.87,4.87,0,0,1,2.21,2.6L159,4.83a2.16,2.16,0,0,0-1.09-1.1,4.4,4.4,0,0,0-2-.4,4.5,4.5,0,0,0-2.1.43,1.28,1.28,0,0,0-.8,1.12q0,1.28,3.39,2a9.87,9.87,0,0,1,4.44,2,4.22,4.22,0,0,1,1.48,3.34,4.89,4.89,0,0,1-.51,2.22,5.21,5.21,0,0,1-1.38,1.75,6.66,6.66,0,0,1-2.1,1.16,8.13,8.13,0,0,1-2.67.41,7.48,7.48,0,0,1-4.19-1.13A6,6,0,0,1,149,13.5Z"/><path class="cls-1" d="M179.59,14.55a8.61,8.61,0,0,1-6.65,3.19,7.85,7.85,0,0,1-3.3-.7,8.7,8.7,0,0,1-2.73-1.9,9,9,0,0,1-1.84-2.81,8.67,8.67,0,0,1-.68-3.4,8.48,8.48,0,0,1,.69-3.41,9.46,9.46,0,0,1,1.85-2.81A8.76,8.76,0,0,1,169.66.79,8.15,8.15,0,0,1,173,.09a8.49,8.49,0,0,1,6.65,3.22l-2.58,2.58a4.83,4.83,0,0,0-4-2.21,4.46,4.46,0,0,0-1.87.4,4.55,4.55,0,0,0-1.52,1.12,5.71,5.71,0,0,0-1,1.67,5.56,5.56,0,0,0-.38,2,5.47,5.47,0,0,0,.38,2,5.71,5.71,0,0,0,1,1.67,4.72,4.72,0,0,0,1.52,1.13,4.43,4.43,0,0,0,4-.13A5.55,5.55,0,0,0,177,12Z"/><path class="cls-1" d="M205.49,11.67v6.07h-3.93V.55h7a7.59,7.59,0,0,1,2.58.42,6.17,6.17,0,0,1,2,1.16,5.39,5.39,0,0,1,1.34,1.77A5.09,5.09,0,0,1,215,6.1a4.67,4.67,0,0,1-.32,1.7,5.46,5.46,0,0,1-.89,1.51,6.3,6.3,0,0,1-1.31,1.21,6.71,6.71,0,0,1-1.63.81l-.42.12,5.08,6.29h-4.66L206,11.67Zm5.59-5.57a1.93,1.93,0,0,0-.63-1.49A2.73,2.73,0,0,0,208.58,4h-3.09V8.19h3.14a3.08,3.08,0,0,0,1-.16,2.49,2.49,0,0,0,.78-.45,1.84,1.84,0,0,0,.52-.66A1.89,1.89,0,0,0,211.08,6.1Z"/><path class="cls-1" d="M224.66.31V17.5h-3.93V.31Z"/><path class="cls-1" d="M8.8,7.08l5,10.62h3.85L9.56.48a.83.83,0,0,0-1.51,0L0,17.7H3.84Z"/><path class="cls-1" d="M137.85,7.11l5,10.63h3.86L138.6.51a.83.83,0,0,0-1.51,0L129,17.74h3.84Z"/></g></g></svg>